<?xml version="1.0" encoding="utf-8"?>
<!-- Generator: Adobe Illustrator 20.1.0, SVG Export Plug-In . SVG Version: 6.00 Build 0)  -->
<svg version="1.1" id="Layer_1" xmlns="http://www.w3.org/2000/svg" xmlns:xlink="http://www.w3.org/1999/xlink" x="0px" y="0px"
	 viewBox="0 0 342.4 185.9" style="enable-background:new 0 0 342.4 185.9;" xml:space="preserve">
<style type="text/css">
	.st0{fill:#272728;}
</style>
<path class="st0" d="M321.2,42.4h-300C9.5,42.4,0,32.9,0,21.2v0C0,9.5,9.5,0,21.2,0l300,0c11.7,0,21.2,9.5,21.2,21.2v0
	C342.4,32.9,332.9,42.4,321.2,42.4z"/>
<path class="st0" d="M321.2,114.1h-300C9.5,114.1,0,104.6,0,92.9v0c0-11.7,9.5-21.2,21.2-21.2h300c11.7,0,21.2,9.5,21.2,21.2v0
	C342.4,104.6,332.9,114.1,321.2,114.1z"/>
<path class="st0" d="M321.2,185.9h-300C9.5,185.9,0,176.3,0,164.6v0c0-11.7,9.5-21.2,21.2-21.2h300c11.7,0,21.2,9.5,21.2,21.2v0
	C342.4,176.3,332.9,185.9,321.2,185.9z"/>
</svg>
